<svg width="401" height="50" viewBox="0 0 401 50" fill="none" xmlns="http://www.w3.org/2000/svg">
<path d="M0.728 42.28L4.76 41.192V16.68C4.76 15.5707 4.67467 14.8453 4.504 14.504C4.376 14.12 3.97067 13.7787 3.288 13.48L0.6 11.944L0.792 5.864H20.76L21.08 12.392L16.344 13.672V41.32L24.408 41.128L29.848 34.92L34.776 35.176C34.6907 38.76 34.392 43.368 33.88 49H1.048L0.728 42.28ZM55.088 49.832C49.6693 49.832 45.616 48.4453 42.928 45.672C40.2827 42.8987 38.96 38.6533 38.96 32.936C38.96 29.2667 39.6213 26.0667 40.944 23.336C42.3093 20.6053 44.2507 18.5147 46.768 17.064C49.2853 15.6133 52.2507 14.888 55.664 14.888C66.7147 14.888 72.24 20.6053 72.24 32.04C72.24 37.6293 70.7253 42.0027 67.696 45.16C64.7093 48.2747 60.5067 49.832 55.088 49.832ZM56.112 42.344C56.9653 42.344 57.712 42.28 58.352 42.152C58.992 41.9813 59.6747 41.7253 60.4 41.384C60.656 40.4027 60.8693 39.144 61.04 37.608C61.2107 36.072 61.296 34.6 61.296 33.192C61.296 29.736 60.7413 27.112 59.632 25.32C58.5653 23.528 56.9653 22.632 54.832 22.632C53.424 22.632 51.9947 22.824 50.544 23.208C50.2453 23.848 50.0107 24.8933 49.84 26.344C49.6693 27.752 49.584 29.3733 49.584 31.208C49.584 34.792 50.1387 37.544 51.248 39.464C52.4 41.384 54.0213 42.344 56.112 42.344ZM76.521 24.296C76.0517 23.144 75.7317 22.3973 75.561 22.056C75.3903 21.7147 75.0703 21.2453 74.601 20.648L73.513 19.24L73.833 15.528H89.961L90.601 20.968L86.889 21.864L92.713 38.376L98.345 23.208C98.4303 22.952 98.473 22.76 98.473 22.632C98.473 22.248 98.281 21.992 97.897 21.864L94.889 20.584L95.465 15.528H107.625L108.265 20.712L95.593 49.128L86.377 49.832L76.521 24.296ZM126.014 49.768C121.022 49.768 117.16 48.2533 114.43 45.224C111.742 42.1947 110.398 38.0133 110.398 32.68C110.398 28.968 111.059 25.7893 112.382 23.144C113.704 20.456 115.582 18.408 118.014 17C120.446 15.592 123.283 14.888 126.526 14.888C131.347 14.888 135.038 16.424 137.598 19.496C140.2 22.568 141.438 26.9413 141.31 32.616L121.854 36.2C122.451 37.992 123.283 39.3147 124.35 40.168C125.459 40.9787 126.91 41.384 128.702 41.384C129.939 41.384 131.411 41.2133 133.118 40.872C134.824 40.488 136.552 39.976 138.302 39.336L139.774 45.672C138.195 46.8667 136.147 47.848 133.63 48.616C131.112 49.384 128.574 49.768 126.014 49.768ZM130.814 27.24C130.728 25.6187 130.259 24.4453 129.406 23.72C128.595 22.952 127.443 22.568 125.95 22.568C124.712 22.568 123.539 22.7387 122.43 23.08C121.534 25.1707 121.128 27.432 121.214 29.864L130.814 27.24ZM158.048 42.472L162.72 41.192V16.68C162.72 15.5707 162.635 14.8453 162.464 14.504C162.293 14.12 161.845 13.7787 161.12 13.48L157.792 11.56L158.112 5.864H178.656L178.912 12.392L174.304 13.672V38.632C174.304 39.656 174.368 40.3173 174.496 40.616C174.667 40.9147 175.072 41.2133 175.712 41.512L178.976 43.496L178.784 49H158.368L158.048 42.472ZM182.477 42.856L186.445 41.704V26.216C186.445 25.2773 186.381 24.68 186.253 24.424C186.125 24.1253 185.783 23.8053 185.229 23.464L182.413 21.928L182.605 17.128L184.013 16.872C189.602 15.7627 193.634 15.1653 196.109 15.08C196.45 15.976 196.727 16.9573 196.941 18.024C199.543 16.8293 201.655 16.0187 203.277 15.592C204.941 15.1227 206.498 14.888 207.949 14.888C214.733 14.888 218.125 18.9413 218.125 27.048V39.592C218.125 40.488 218.189 41.0853 218.317 41.384C218.445 41.6827 218.807 42.0027 219.405 42.344L222.477 44.136L222.221 48.936H204.557L204.237 42.856L207.373 41.96V29.864C207.373 27.944 207.309 26.6 207.181 25.832C207.053 25.064 206.69 24.4667 206.093 24.04C205.538 23.6133 204.535 23.4 203.085 23.4C201.549 23.4 199.607 23.6347 197.26 24.104V39.592C197.26 40.488 197.325 41.0853 197.453 41.384C197.581 41.6827 197.922 42.0027 198.477 42.344L201.613 44.136L201.357 48.936H182.797L182.477 42.856ZM237.978 42.28L242.01 41.192V16.68C242.01 15.5707 241.925 14.8453 241.754 14.504C241.626 14.12 241.221 13.7787 240.538 13.48L237.85 11.944L238.042 5.864H258.01L258.33 12.392L253.594 13.672V23.016L268.186 22.632V16.68C268.186 15.5707 268.101 14.8453 267.93 14.504C267.759 14.12 267.311 13.7787 266.586 13.48L263.45 11.688L263.77 5.864H283.418L283.674 12.584L279.77 13.672V38.632C279.77 39.656 279.834 40.3173 279.962 40.616C280.133 40.9147 280.517 41.2133 281.114 41.512L283.738 43.048L283.482 49H264.026L263.706 42.408L268.186 41.192V31.656L253.594 31.016V38.632C253.594 39.656 253.658 40.3173 253.786 40.616C253.957 40.9147 254.362 41.2133 255.002 41.512L258.394 43.496L258.138 49H238.298L237.978 42.28ZM297.005 49.832C294.104 49.832 291.778 49.0427 290.029 47.464C288.28 45.8427 287.405 43.7733 287.405 41.256C287.405 37.8853 289.09 35.24 292.461 33.32C295.874 31.4 300.824 30.312 307.309 30.056C307.309 28.0507 307.138 26.5787 306.797 25.64C306.498 24.6587 305.922 23.9973 305.069 23.656C304.258 23.272 303 23.08 301.293 23.08C299.544 23.08 298.306 23.144 297.581 23.272L294.957 28.456L290.221 28.136C289.496 24.7227 288.984 21.1813 288.685 17.512C291.074 16.7013 293.677 16.0613 296.493 15.592C299.352 15.1227 302.018 14.888 304.493 14.888C309.016 14.888 312.258 15.784 314.221 17.576C316.184 19.3253 317.165 22.248 317.165 26.344V39.72C317.165 40.488 317.229 41.0213 317.357 41.32C317.528 41.6187 317.869 41.9173 318.381 42.216L320.941 43.688L320.685 47.656C315.736 48.808 311.832 49.448 308.973 49.576C308.888 49.32 308.76 48.872 308.589 48.232C308.418 47.5493 308.269 46.9093 308.141 46.312C306.477 47.3787 304.642 48.232 302.637 48.872C300.674 49.512 298.797 49.832 297.005 49.832ZM301.293 42.6C303 42.6 305.069 42.024 307.501 40.872L307.245 36.008C306.221 35.9227 305.538 35.88 305.197 35.88C304.045 35.88 302.701 36.008 301.165 36.264C299.629 36.4773 298.413 36.7333 297.517 37.032C297.389 37.5867 297.325 38.0987 297.325 38.568C297.325 39.848 297.666 40.8507 298.349 41.576C299.074 42.2587 300.056 42.6 301.293 42.6ZM323.227 42.856L327.195 41.704V26.216C327.195 25.2773 327.131 24.68 327.003 24.424C326.875 24.1253 326.533 23.8053 325.979 23.464L323.163 21.928L323.355 17.128L324.763 16.872C330.352 15.7627 334.384 15.1653 336.859 15.08C337.2 15.976 337.477 16.9573 337.691 18.024C340.293 16.8293 342.405 16.0187 344.027 15.592C345.691 15.1227 347.248 14.888 348.699 14.888C355.483 14.888 358.875 18.9413 358.875 27.048V39.592C358.875 40.488 358.939 41.0853 359.067 41.384C359.195 41.6827 359.557 42.0027 360.155 42.344L363.227 44.136L362.971 48.936H345.307L344.987 42.856L348.123 41.96V29.864C348.123 27.944 348.059 26.6 347.931 25.832C347.803 25.064 347.44 24.4667 346.843 24.04C346.288 23.6133 345.285 23.4 343.835 23.4C342.299 23.4 340.357 23.6347 338.01 24.104V39.592C338.01 40.488 338.075 41.0853 338.203 41.384C338.331 41.6827 338.672 42.0027 339.227 42.344L342.363 44.136L342.107 48.936H323.547L323.227 42.856ZM377.829 49.832C373.733 49.832 370.533 48.296 368.229 45.224C365.925 42.152 364.773 38.0347 364.773 32.872C364.773 26.9413 366.33 22.4613 369.445 19.432C372.602 16.4027 377.082 14.888 382.885 14.888C383.226 14.888 384.335 14.9307 386.213 15.016V11.176C386.213 10.2373 386.149 9.61867 386.021 9.32C385.893 9.02133 385.53 8.70133 384.933 8.36L382.053 6.888L382.373 2.024C386.469 1.29866 389.498 0.807997 391.461 0.551998C393.423 0.25333 394.981 0.0826632 396.132 0.0399971C396.516 1.02133 396.794 2.13066 396.965 3.368V39.784C396.965 40.552 397.029 41.0853 397.157 41.384C397.327 41.6827 397.69 41.9813 398.245 42.28L400.677 43.752L400.421 47.72C396.239 48.7867 392.143 49.4267 388.133 49.64C387.834 48.8293 387.535 47.848 387.237 46.696C384.335 48.7867 381.199 49.832 377.829 49.832ZM381.541 41.64C382.949 41.64 384.527 41.1707 386.277 40.232V23.656C384.997 23.1013 383.354 22.824 381.349 22.824C379.727 22.824 378.17 23.0373 376.677 23.464C376.335 24.2747 376.058 25.384 375.845 26.792C375.674 28.2 375.589 29.7573 375.589 31.464C375.589 34.9627 376.058 37.544 376.997 39.208C377.978 40.8293 379.493 41.64 381.541 41.64Z" fill="black"/>
</svg>
