<svg width="515" height="86" viewBox="0 0 515 86" fill="none" xmlns="http://www.w3.org/2000/svg">
<path d="M40.1412 36.2039C41.1622 37.2698 42.8396 37.2698 43.8607 36.2039L59.6283 19.6979C64.223 14.9108 63.9634 6.96427 58.8042 2.54147C54.3 -1.32487 47.6093 -0.623867 43.5033 3.65786L41.8769 5.33246L40.3746 3.6515C36.2758 -0.630371 29.5662 -1.33123 24.957 2.53569C19.9393 6.96138 19.6476 14.9137 24.2714 19.6979L40.1412 36.2039ZM82.8787 48.605C80.965 46.0309 77.3156 45.4744 74.7207 47.381L57.261 60.1247H39.6701C38.3941 60.1247 37.4675 59.0768 37.4675 57.9422C37.4675 56.6781 38.525 55.7597 39.6701 55.7597H51.0837C53.2863 55.7597 55.569 54.1886 55.9512 51.9122C56.4252 49.1515 54.1833 46.5109 51.339 46.5109H27.8742C24.0672 46.5109 20.126 47.8478 17.0629 50.3049L10.2803 55.7597L2.20396 55.7561C0.927959 55.7561 0.00144403 56.8076 0.00144403 58.0715L0 71.6874C0 72.9593 1.05763 74 2.2025 74H52.6853C55.8987 74 59.0916 72.9612 61.685 71.0688L81.3909 56.686C84.2352 54.7912 84.7895 51.1778 82.8787 48.605Z" fill="#F6951F"/>
<path d="M113.728 58.28L117.76 57.192V32.68C117.76 31.5707 117.675 30.8453 117.504 30.504C117.376 30.12 116.971 29.7787 116.288 29.48L113.6 27.944L113.792 21.864H133.76L134.08 28.392L129.344 29.672V57.32L137.408 57.128L142.848 50.92L147.776 51.176C147.691 54.76 147.392 59.368 146.88 65H114.048L113.728 58.28ZM168.088 65.832C162.669 65.832 158.616 64.4453 155.928 61.672C153.283 58.8987 151.96 54.6533 151.96 48.936C151.96 45.2667 152.621 42.0667 153.944 39.336C155.309 36.6053 157.251 34.5147 159.768 33.064C162.285 31.6133 165.251 30.888 168.664 30.888C179.715 30.888 185.24 36.6053 185.24 48.04C185.24 53.6293 183.725 58.0027 180.696 61.16C177.709 64.2747 173.507 65.832 168.088 65.832ZM169.112 58.344C169.965 58.344 170.712 58.28 171.352 58.152C171.992 57.9813 172.675 57.7253 173.4 57.384C173.656 56.4027 173.869 55.144 174.04 53.608C174.211 52.072 174.296 50.6 174.296 49.192C174.296 45.736 173.741 43.112 172.632 41.32C171.565 39.528 169.965 38.632 167.832 38.632C166.424 38.632 164.995 38.824 163.544 39.208C163.245 39.848 163.011 40.8933 162.84 42.344C162.669 43.752 162.584 45.3733 162.584 47.208C162.584 50.792 163.139 53.544 164.248 55.464C165.4 57.384 167.021 58.344 169.112 58.344ZM189.521 40.296C189.052 39.144 188.732 38.3973 188.561 38.056C188.39 37.7147 188.07 37.2453 187.601 36.648L186.513 35.24L186.833 31.528H202.961L203.601 36.968L199.889 37.864L205.713 54.376L211.345 39.208C211.43 38.952 211.473 38.76 211.473 38.632C211.473 38.248 211.281 37.992 210.897 37.864L207.889 36.584L208.465 31.528H220.625L221.265 36.712L208.593 65.128L199.377 65.832L189.521 40.296ZM239.014 65.768C234.022 65.768 230.16 64.2533 227.43 61.224C224.742 58.1947 223.398 54.0133 223.398 48.68C223.398 44.968 224.059 41.7893 225.382 39.144C226.704 36.456 228.582 34.408 231.014 33C233.446 31.592 236.283 30.888 239.526 30.888C244.347 30.888 248.038 32.424 250.598 35.496C253.2 38.568 254.438 42.9413 254.31 48.616L234.854 52.2C235.451 53.992 236.283 55.3147 237.35 56.168C238.459 56.9787 239.91 57.384 241.702 57.384C242.939 57.384 244.411 57.2133 246.118 56.872C247.824 56.488 249.552 55.976 251.302 55.336L252.774 61.672C251.195 62.8667 249.147 63.848 246.63 64.616C244.112 65.384 241.574 65.768 239.014 65.768ZM243.814 43.24C243.728 41.6187 243.259 40.4453 242.406 39.72C241.595 38.952 240.443 38.568 238.95 38.568C237.712 38.568 236.539 38.7387 235.43 39.08C234.534 41.1707 234.128 43.432 234.214 45.864L243.814 43.24ZM271.048 58.472L275.72 57.192V32.68C275.72 31.5707 275.635 30.8453 275.464 30.504C275.293 30.12 274.845 29.7787 274.12 29.48L270.792 27.56L271.112 21.864H291.656L291.912 28.392L287.304 29.672V54.632C287.304 55.656 287.368 56.3173 287.496 56.616C287.667 56.9147 288.072 57.2133 288.712 57.512L291.976 59.496L291.784 65H271.368L271.048 58.472ZM295.477 58.856L299.445 57.704V42.216C299.445 41.2773 299.381 40.68 299.253 40.424C299.125 40.1253 298.783 39.8053 298.229 39.464L295.413 37.928L295.605 33.128L297.013 32.872C302.602 31.7627 306.634 31.1653 309.109 31.08C309.45 31.976 309.727 32.9573 309.941 34.024C312.543 32.8293 314.655 32.0187 316.277 31.592C317.941 31.1227 319.498 30.888 320.949 30.888C327.733 30.888 331.125 34.9413 331.125 43.048V55.592C331.125 56.488 331.189 57.0853 331.317 57.384C331.445 57.6827 331.807 58.0027 332.405 58.344L335.477 60.136L335.221 64.936H317.557L317.237 58.856L320.373 57.96V45.864C320.373 43.944 320.309 42.6 320.181 41.832C320.053 41.064 319.69 40.4667 319.093 40.04C318.538 39.6133 317.535 39.4 316.085 39.4C314.549 39.4 312.607 39.6347 310.26 40.104V55.592C310.26 56.488 310.325 57.0853 310.453 57.384C310.581 57.6827 310.922 58.0027 311.477 58.344L314.613 60.136L314.357 64.936H295.797L295.477 58.856ZM350.978 58.28L355.01 57.192V32.68C355.01 31.5707 354.925 30.8453 354.754 30.504C354.626 30.12 354.221 29.7787 353.538 29.48L350.85 27.944L351.042 21.864H371.01L371.33 28.392L366.594 29.672V39.016L381.186 38.632V32.68C381.186 31.5707 381.101 30.8453 380.93 30.504C380.759 30.12 380.311 29.7787 379.586 29.48L376.45 27.688L376.77 21.864H396.418L396.674 28.584L392.77 29.672V54.632C392.77 55.656 392.834 56.3173 392.962 56.616C393.133 56.9147 393.517 57.2133 394.114 57.512L396.738 59.048L396.482 65H377.026L376.706 58.408L381.186 57.192V47.656L366.594 47.016V54.632C366.594 55.656 366.658 56.3173 366.786 56.616C366.957 56.9147 367.362 57.2133 368.002 57.512L371.394 59.496L371.138 65H351.298L350.978 58.28ZM410.005 65.832C407.104 65.832 404.778 65.0427 403.029 63.464C401.28 61.8427 400.405 59.7733 400.405 57.256C400.405 53.8853 402.09 51.24 405.461 49.32C408.874 47.4 413.824 46.312 420.309 46.056C420.309 44.0507 420.138 42.5787 419.797 41.64C419.498 40.6587 418.922 39.9973 418.069 39.656C417.258 39.272 416 39.08 414.293 39.08C412.544 39.08 411.306 39.144 410.581 39.272L407.957 44.456L403.221 44.136C402.496 40.7227 401.984 37.1813 401.685 33.512C404.074 32.7013 406.677 32.0613 409.493 31.592C412.352 31.1227 415.018 30.888 417.493 30.888C422.016 30.888 425.258 31.784 427.221 33.576C429.184 35.3253 430.165 38.248 430.165 42.344V55.72C430.165 56.488 430.229 57.0213 430.357 57.32C430.528 57.6187 430.869 57.9173 431.381 58.216L433.941 59.688L433.685 63.656C428.736 64.808 424.832 65.448 421.973 65.576C421.888 65.32 421.76 64.872 421.589 64.232C421.418 63.5493 421.269 62.9093 421.141 62.312C419.477 63.3787 417.642 64.232 415.637 64.872C413.674 65.512 411.797 65.832 410.005 65.832ZM414.293 58.6C416 58.6 418.069 58.024 420.501 56.872L420.245 52.008C419.221 51.9227 418.538 51.88 418.197 51.88C417.045 51.88 415.701 52.008 414.165 52.264C412.629 52.4773 411.413 52.7333 410.517 53.032C410.389 53.5867 410.325 54.0987 410.325 54.568C410.325 55.848 410.666 56.8507 411.349 57.576C412.074 58.2587 413.056 58.6 414.293 58.6ZM436.227 58.856L440.195 57.704V42.216C440.195 41.2773 440.131 40.68 440.003 40.424C439.875 40.1253 439.533 39.8053 438.979 39.464L436.163 37.928L436.355 33.128L437.763 32.872C443.352 31.7627 447.384 31.1653 449.859 31.08C450.2 31.976 450.477 32.9573 450.691 34.024C453.293 32.8293 455.405 32.0187 457.027 31.592C458.691 31.1227 460.248 30.888 461.699 30.888C468.483 30.888 471.875 34.9413 471.875 43.048V55.592C471.875 56.488 471.939 57.0853 472.067 57.384C472.195 57.6827 472.557 58.0027 473.155 58.344L476.227 60.136L475.971 64.936H458.307L457.987 58.856L461.123 57.96V45.864C461.123 43.944 461.059 42.6 460.931 41.832C460.803 41.064 460.44 40.4667 459.843 40.04C459.288 39.6133 458.285 39.4 456.835 39.4C455.299 39.4 453.357 39.6347 451.01 40.104V55.592C451.01 56.488 451.075 57.0853 451.203 57.384C451.331 57.6827 451.672 58.0027 452.227 58.344L455.363 60.136L455.107 64.936H436.547L436.227 58.856ZM490.829 65.832C486.733 65.832 483.533 64.296 481.229 61.224C478.925 58.152 477.773 54.0347 477.773 48.872C477.773 42.9413 479.33 38.4613 482.445 35.432C485.602 32.4027 490.082 30.888 495.885 30.888C496.226 30.888 497.335 30.9307 499.213 31.016V27.176C499.213 26.2373 499.149 25.6187 499.021 25.32C498.893 25.0213 498.53 24.7013 497.933 24.36L495.053 22.888L495.373 18.024C499.469 17.2987 502.498 16.808 504.461 16.552C506.423 16.2533 507.981 16.0827 509.132 16.04C509.516 17.0213 509.794 18.1307 509.965 19.368V55.784C509.965 56.552 510.029 57.0853 510.157 57.384C510.327 57.6827 510.69 57.9813 511.245 58.28L513.677 59.752L513.421 63.72C509.239 64.7867 505.143 65.4267 501.133 65.64C500.834 64.8293 500.535 63.848 500.237 62.696C497.335 64.7867 494.199 65.832 490.829 65.832ZM494.541 57.64C495.949 57.64 497.527 57.1707 499.277 56.232V39.656C497.997 39.1013 496.354 38.824 494.349 38.824C492.727 38.824 491.17 39.0373 489.677 39.464C489.335 40.2747 489.058 41.384 488.845 42.792C488.674 44.2 488.589 45.7573 488.589 47.464C488.589 50.9627 489.058 53.544 489.997 55.208C490.978 56.8293 492.493 57.64 494.541 57.64Z" fill="#F6951F"/>
</svg>
